<svg width="147" height="48" viewBox="0 0 147 48" fill="none" xmlns="http://www.w3.org/2000/svg">
<g id="Group">
<path id="Vector" d="M76.5663 11.973H72.1533L69.6645 16.1234H74.0752L76.5663 11.973ZM88.014 22.8936C85.7023 23.0903 81.6179 25.2171 79.3933 29.8642C77.1688 34.5113 77.1606 37.38 77.1606 37.38C77.1606 37.38 78.3338 36.0573 80.1324 34.6722C81.9309 33.2872 83.2695 32.7952 83.2695 32.7952C83.2695 32.7952 83.6032 31.089 84.4338 29.3046C85.2416 27.5688 86.5233 25.7616 88.1092 25.3515C91.3239 24.5193 89.7845 30.5537 87.4233 34.4885C86.1541 36.6032 81.6526 42.6809 77.7771 42.6809C73.9017 42.6809 73.1538 38.8379 73.9711 35.2448C74.7877 31.6524 75.918 27.0881 81.5721 18.7947C87.2262 10.5014 93.3461 5.58476 96.8886 3.51864C100.527 1.39784 102.01 2.32726 102.01 2.32726C102.01 2.32726 97.3648 5.26964 94.7224 8.80962C92.1958 12.1932 90.6882 16.0004 91.8606 17.8661C92.977 19.6437 96.9122 19.6771 101.245 13.2426C105.523 6.8908 104.442 3.11392 104.442 3.11392C104.442 3.11392 104.959 2.94079 105.306 2.89295C107.392 2.60745 109.063 3.17314 111.65 4.53765C114.36 5.96746 116.961 8.26063 120.524 10.1369C121.597 8.92807 122.79 7.64405 124.046 6.39117C119.243 3.98638 115.596 0.558787 110.885 0.229999C106.784 -0.0555075 103.551 1.48137 103.551 1.48137C103.551 1.48137 102.3 -0.270397 98.442 0.301376C94.5836 0.873907 82.6958 5.98569 72.5816 22.6438C63.4367 37.705 67.7456 46.3362 74.3188 46.2375C81.4444 46.1297 88.2229 37.9799 90.5169 31.2591C92.8109 24.5383 90.0997 22.7167 88.014 22.8936ZM102.002 8.89846C100.805 11.9008 99.0415 13.9988 97.3065 15.601C95.0812 17.6565 93.86 17.5874 93.3314 17.1743C91.9507 16.0931 93.8032 12.0155 97.0186 8.36921C100.221 4.73736 102.978 3.60748 102.978 3.60748C102.978 3.65 103.436 5.2985 102.002 8.89846ZM141.682 4.52019C138.421 6.67743 133.901 8.63118 129.562 8.20064C128.464 9.37228 127.288 10.7224 126.107 12.1992C133.638 13.727 140.225 8.92883 143.732 4.84062C145.92 2.29157 147 0.0158691 147 0.0158691C147 0.0158691 144.911 2.38345 141.682 4.52019Z" fill="#F40009"/>
<path id="Vector_2" d="M138.119 23.4491H133.479L132.725 24.6473C132.725 24.6473 131.779 22.891 130.176 22.9191C127.429 22.9677 124.681 25.1242 121.487 28.8646C119.145 31.605 115.265 37.7062 115.265 37.7062C115.265 37.7062 112.287 42.4254 110.781 42.0556C108.213 41.4246 112.936 31.6529 112.936 31.6529C112.936 31.6529 115.419 30.0758 118.637 27.2913C120.663 25.5388 122.993 23.1279 125.136 20.8932C127.084 18.8605 129.381 16.1004 131.563 13.0767C131.004 13.1679 130.431 13.2294 129.847 13.259C127.89 15.9136 125.801 18.2895 124.023 20.178C121.378 22.989 118.944 25.289 117.176 26.756C115.482 28.1607 114.395 28.7933 114.395 28.7933C114.395 28.7933 117.627 21.9662 123.015 14.423C128.402 6.88065 135.946 -0.126405 135.354 3.19792C135.185 4.15239 134.609 5.52146 133.738 7.14641C134.351 7.01505 134.946 6.85104 135.521 6.66424C136.819 3.90865 137.261 1.63751 136.292 0.98145C132.339 -1.69593 122.285 9.38263 117.244 15.8172C112.204 22.2517 107.643 32.0849 107.643 32.0849C107.643 32.0849 106.854 32.4251 105.983 32.5952C105.432 32.703 105.198 32.6795 105.108 32.643C105.063 32.6241 105.057 32.5922 105.057 32.5922C105.057 32.5922 109.491 24.068 104.952 22.9373C100.571 21.847 92.9814 30.1813 90.2828 35.9788C88.4311 39.9561 87.3864 44.9631 90.5619 46.1552C94.001 47.4469 99.8426 40.9896 101.216 39.1133C102.589 37.2362 104.304 34.1154 104.304 34.1154C104.304 34.1154 105.142 34.0698 105.601 34.0007C106.478 33.8678 106.888 33.757 106.888 33.757C106.888 33.757 106.32 35.2885 105.705 37.2301C104.558 40.8506 103.524 46.0307 107.652 46.2745C110.282 46.4286 114.14 41.5439 114.14 41.5439C114.14 41.5439 113.102 45.8872 116.515 46.2745C119.035 46.56 122.703 42.556 122.703 42.556C122.703 42.556 121.904 46.0057 124.458 46.3094C126.645 46.5698 129.75 43.9327 132.296 41.0313C135.075 37.8634 137.208 34.3941 137.208 34.3941H135.591C135.591 34.3941 132.014 39.9781 129.502 41.4725C127.44 42.6996 128.147 40.7337 128.772 39.7033C129.462 38.5665 138.117 23.4491 138.117 23.4499L138.119 23.4491ZM102.765 33.9665C102.701 34.1161 101.54 36.1944 100.297 37.8285C98.9589 39.5894 96.5084 42.2394 95.0354 41.679C92.7326 40.8028 95.2665 35.6431 96.9233 33.1404C98.5801 30.6377 98.7684 30.4683 98.8149 30.403C98.8614 30.3377 98.9079 30.2777 98.9485 30.3552C98.9891 30.4326 99.5163 31.4608 100.557 32.353C101.603 33.249 102.608 33.722 102.69 33.7517C102.771 33.7813 102.829 33.817 102.765 33.9658V33.9665ZM103.801 32.107C103.655 32.356 103.551 32.3682 103.249 32.2854C102.718 32.1373 100.515 31.0902 100.532 28.7674C100.548 26.5039 103.65 24.2867 104.867 25.2343C106.002 26.1182 105.46 28.3779 105.032 29.5306C104.604 30.6825 103.896 31.9437 103.801 32.107ZM124.881 37.7062C124.269 38.5703 123.756 39.3509 123.294 39.8992C122.306 41.0723 121.662 41.6183 121.087 41.7625C120.798 41.8347 120.439 41.8172 120.201 41.6691C119.358 41.1414 119.949 39.0867 121.416 36.3243C122.759 33.7995 124.311 31.2732 126.862 28.365C129.423 25.4454 130.403 25.3049 131.12 25.3383C131.723 25.3649 131.809 26.0172 131.809 26.0172C131.809 26.0172 131.766 26.1683 131.67 26.3391C130.825 27.8464 126.566 35.3303 124.881 37.7062H124.881ZM56.4337 41.3586C53.62 39.5704 50.0103 38.423 45.8632 38.3858C35.1797 38.2901 23.5474 43.6282 15.6688 43.7003C6.37627 43.7839 5.91334 36.4313 6.60219 32.394C8.08474 23.6959 14.0836 15.398 17.9406 11.0228C21.7983 6.64754 25.8406 3.25259 29.2015 2.38468C32.5623 1.51677 32.2463 4.14556 31.8351 4.50472C31.4105 4.51383 30.5962 4.60799 30.134 4.93678C29.4104 5.45008 28.444 6.39013 28.3834 7.88068C28.2793 10.1769 31.1647 10.5793 33.2504 5.77128C34.6732 2.49175 32.4169 0.266166 30.543 0.0520358C27.9729 -0.242583 24.045 0.676201 19.3567 3.77501C11.1968 9.16774 0.28216 21.1431 0.00381302 34.4297C-0.154926 42.0093 4.65967 46.2745 11.2654 46.2745C17.8712 46.2745 26.8396 42.1141 35.5968 42.0078C41.0191 41.96 44.5283 43.9145 46.3054 47.0976C46.3054 47.0976 48.0715 44.0762 52.0046 43.9145C55.8955 43.7535 60.1793 44.875 63.6959 47.4172C62.5227 45.6738 59.2061 43.1202 56.433 41.3586H56.4337Z" fill="#F40009"/>
<path id="Vector_3" d="M32.1039 11.5087C27.6252 10.3347 20.1873 18.1755 17.0532 24.5569C15.1202 28.4932 14.2726 33.4402 17.714 34.7273C21.1553 36.0144 26.9939 29.5616 28.3672 27.6853C29.7405 25.8083 31.9879 22.0488 31.9879 22.0488C31.9879 22.0488 32.6775 21.9122 33.1294 21.8043C33.5812 21.6965 34.3114 21.4824 34.3114 21.4824C34.3114 21.4824 33.4646 23.0345 32.7004 24.6252C31.7945 26.5114 29.3329 32.7903 34.0855 34.6734C38.6262 36.4722 45.0902 28.9709 45.4298 28.8289C45.4298 28.8289 43.5058 33.9406 46.4945 34.7273C49.7741 35.5899 53.3683 31.2686 53.3683 31.2686C53.3683 31.2686 52.6115 34.5124 55.1668 34.8169C59.7429 35.3613 67.8371 23.3238 67.8371 23.3238H66.2202C66.2202 23.3238 62.1011 28.775 60.1202 29.901C58.1393 31.0271 58.8518 29.0263 59.39 28.1318C60.0766 26.9936 68.8272 11.9559 68.8272 11.9559H64.1869L63.6486 12.8314C63.6486 12.8314 62.6925 11.3302 61.0941 11.4373C56.4434 11.7494 50.9096 19.373 48.4761 22.733C46.0434 26.0938 40.7946 32.5101 38.0311 31.3665C35.0195 30.1197 38.0141 24.3959 39.995 21.0351C42.1517 17.3767 45.974 13.7532 47.4853 13.7251C49.3451 13.6894 48.6149 15.423 48.6149 15.423C48.6149 15.423 47.2247 15.2445 46.2169 16.5491C45.5037 17.4716 44.913 18.8187 45.5908 19.5514C46.6857 20.7352 48.1114 19.5332 48.9627 18.1922C51.617 14.0137 49.6752 11.8116 47.5902 11.4904C43.1484 10.8048 39.0566 16.6736 35.9461 18.8544C33.788 20.3662 32.8865 20.2485 32.8865 20.2485C32.8865 20.2485 36.6305 12.6947 32.1046 11.5079L32.1039 11.5087ZM52.212 25.0216C53.5551 22.4961 55.3846 20.0579 57.7657 17.0016C60.1468 13.9453 61.3318 13.6978 62.0487 13.7312C62.6519 13.7585 62.7376 14.41 62.7376 14.41C62.7376 14.41 57.5641 23.6806 55.6873 26.3261C55.0745 27.1902 54.5503 27.9222 54.0881 28.4712C53.1002 29.6444 52.3826 30.2116 51.8289 30.3528C51.5394 30.4257 51.1806 30.4075 50.9421 30.2587C50.099 29.7309 50.742 27.7833 52.2113 25.0216H52.212ZM30.2558 22.0132C30.1916 22.162 28.7142 24.6746 27.4724 26.3087C26.1345 28.0695 23.6619 30.7302 22.1889 30.1698C19.8861 29.2936 22.3425 24.1696 23.9993 21.6677C25.6561 19.1649 25.899 18.843 25.9463 18.7784C25.9928 18.7124 26.0385 18.6524 26.0791 18.7306C26.1198 18.808 26.6469 19.9227 27.7884 20.673C28.9298 21.4239 30.1 21.7694 30.1813 21.799C30.2625 21.8286 30.3208 21.8651 30.2566 22.0132H30.2558ZM32.1821 18.1019C31.7539 19.2553 31.3714 19.982 31.2924 20.1536C31.1654 20.4284 30.8472 20.3404 30.8472 20.3404C30.4847 20.3237 27.6665 19.6623 27.6828 17.3395C27.6983 15.076 30.8015 12.8587 32.0175 13.8064C33.153 14.6902 32.6103 16.95 32.1821 18.1019ZM134.628 43.5188C134.357 43.3608 134.056 43.2826 133.724 43.2826C133.393 43.2826 133.091 43.3616 132.821 43.5188C132.55 43.6767 132.337 43.8908 132.181 44.1634C132.026 44.4353 131.948 44.7314 131.948 45.0503C131.948 45.3692 132.025 45.6707 132.181 45.941C132.336 46.2106 132.55 46.4247 132.821 46.5819C133.091 46.7398 133.393 46.818 133.724 46.818C134.056 46.818 134.357 46.7391 134.628 46.5819C134.899 46.4247 135.112 46.2106 135.267 45.941C135.422 45.6715 135.501 45.3746 135.501 45.0503C135.501 44.7261 135.423 44.4353 135.267 44.1634C135.112 43.8916 134.899 43.6767 134.628 43.5188ZM134.946 45.7823C134.829 45.998 134.663 46.1673 134.451 46.2911C134.24 46.4141 133.997 46.4756 133.724 46.4756C133.452 46.4756 133.209 46.4141 132.997 46.2911C132.785 46.1681 132.62 45.9987 132.502 45.7823C132.385 45.5667 132.326 45.3222 132.326 45.0503C132.326 44.7785 132.385 44.5408 132.502 44.3252C132.62 44.1095 132.786 43.9402 133 43.8164C133.214 43.6927 133.455 43.6319 133.724 43.6319C133.993 43.6319 134.234 43.6934 134.449 43.8164C134.663 43.9394 134.829 44.1088 134.946 44.3252C135.064 44.5408 135.123 44.7831 135.123 45.0503C135.123 45.3176 135.064 45.5667 134.946 45.7823Z" fill="#F40009"/>
<path id="Vector_4" d="M134.392 45.0215C134.442 44.9372 134.467 44.843 134.467 44.7398C134.467 44.597 134.422 44.4778 134.332 44.3806C134.242 44.2834 134.121 44.2348 133.97 44.2348H133.069V45.8347H133.466V45.2515H133.768L134.133 45.8347H134.587L134.178 45.2128C134.27 45.1695 134.341 45.1057 134.392 45.0215ZM134.014 44.8529C133.984 44.881 133.944 44.8947 133.894 44.8947H133.466V44.5841H133.894C133.944 44.5841 133.984 44.5985 134.014 44.6259C134.043 44.654 134.058 44.6919 134.058 44.739C134.058 44.7861 134.043 44.824 134.014 44.8521V44.8529Z" fill="#F40009"/>
</g>
</svg>
