<svg width="155" height="51" viewBox="0 0 155 51" fill="none" xmlns="http://www.w3.org/2000/svg">
<g id="Group">
<path id="Vector" d="M9.81925 49.2711H3.9787V24.9838H0V17.0764H3.97854V11.4497C3.97854 4.78201 5.73826 0 11.563 0C12.7949 0 14.729 0.414208 14.729 0.414208V7.7567H12.6976C10.6277 7.7567 9.81956 8.80696 9.81956 11.7106V17.0764H14.6515L14.2213 24.9838H9.81941L9.81925 49.2711ZM23.2206 16.4445C23.1355 16.4445 23.0479 16.4496 22.9612 16.4533C17.5455 16.4533 15.0677 23.2486 15.0677 32.8949C15.0677 45.0465 18.2818 49.91 23.0036 49.91C25.705 49.91 27.4799 48.0132 28.5588 44.4736V49.2745H34.1139V17.0797H28.5588V22.0308C27.6779 18.8454 25.8534 16.4822 23.2206 16.4445ZM24.6331 24.052C26.9077 24.052 28.2729 26.6986 28.2729 31.2003L28.2782 35.7982C28.2782 38.8324 27.1506 42.3821 24.6331 42.3821C20.7627 42.3821 20.8661 35.4109 20.8661 33.0891C20.8661 25.2788 22.9282 24.052 24.6331 24.052ZM36.3574 33.1788C36.3574 29.2666 36.2452 16.4654 46.2433 16.4654C50.2567 16.4654 51.9326 18.5941 51.9326 18.5941L50.5856 25.563C50.5856 25.563 48.912 24.0256 46.7311 24.0256C43.9379 24.0256 42.1555 26.7268 42.1555 31.4793L42.1586 34.8871C42.1586 39.4537 43.8783 42.5021 46.7368 42.5021C48.7236 42.5021 50.5548 40.9502 50.5548 40.9502L51.8983 47.7735C51.8983 47.7735 50.366 49.9157 46.2714 49.9157C36.7516 49.9157 36.3576 38.4306 36.3576 33.1788H36.3574ZM84.5048 16.4533C89.9206 16.4533 92.4375 23.2486 92.4375 32.8949C92.4375 45.0465 89.2233 49.91 84.5015 49.91C81.8 49.91 79.803 48.0135 78.7242 44.4736V49.2745L73.2389 49.2708V0.978896L79.0629 0.131605V21.5947C79.9034 17.8396 82.6657 16.4533 84.5048 16.4533ZM82.872 24.052C80.5974 24.052 79.0629 26.6986 79.0629 31.2003L79.0574 35.7982C79.054 38.8324 80.1201 42.3821 82.872 42.3821C86.7423 42.3821 86.639 35.4109 86.639 33.0891C86.639 25.2788 84.577 24.052 82.872 24.052ZM62.0377 16.4799C55.895 16.4799 52.6521 22.0665 52.6521 31.9946V33.8391C52.6521 46.7248 57.2062 50.0424 62.6355 50.0424C67.9128 50.0424 70.3015 47.5801 70.3015 47.5801L69.2117 41.0231C69.2117 41.0231 66.4018 43.0174 63.3338 43.0174C60.1532 43.0174 58.7853 41.6651 58.4347 36.5664H70.7671V31.3061C70.7671 20.5366 67.1276 16.4796 62.0375 16.4796L62.0377 16.4799ZM62.1857 23.0457C64.312 23.0457 65.6898 25.2207 65.6141 30.2648H58.4454C58.5697 24.9559 60.0555 23.0457 62.1857 23.0457ZM104.05 16.4357C97.7422 16.4357 94.4213 22.3654 94.4213 32.9918C94.4213 47.5719 100.146 49.9188 104.061 49.9188C109.792 49.9188 113.605 44.7717 113.605 33.1242C113.605 21.0013 109.318 16.4357 104.05 16.4357ZM103.971 24.0784C106.745 24.0784 107.844 27.5412 107.844 31.4829V34.8718C107.844 39.6468 106.306 42.4087 103.96 42.4087C101.767 42.4087 100.225 39.8252 100.225 34.8718V31.4829C100.225 26.2001 102.06 24.0784 103.971 24.0784ZM125.207 16.4357C118.899 16.4357 115.579 22.3654 115.579 32.9918C115.579 47.5719 121.303 49.9188 125.218 49.9188C130.949 49.9188 134.762 44.7717 134.762 33.1242C134.762 21.0013 130.475 16.4357 125.207 16.4357ZM125.128 24.0784C127.902 24.0784 129.001 27.5412 129.001 31.4829V34.8718C129.001 39.6468 127.463 42.4087 125.118 42.4087C122.924 42.4087 121.382 39.8252 121.382 34.8718V31.4829C121.382 26.2001 123.217 24.0784 125.128 24.0784ZM136.963 49.2711V0.978896L142.804 0.131605V32.5001L148.599 17.0764H154.767L148.722 33.0508L155 49.2711H148.814L142.804 33.5214V49.2711H136.963Z" fill="#1877F2"/>
</g>
</svg>
