<svg width="164" height="61" viewBox="0 0 164 61" fill="none" xmlns="http://www.w3.org/2000/svg">
<path id="Vector" d="M163.899 14.3509C161.669 0.17562 123.195 -4.24806 77.9627 4.46999C58.9665 8.13319 41.8139 13.5362 28.4563 19.6147C30.5082 19.6644 32.03 20.1853 32.9546 21.2062C33.6775 22.0074 34.0426 23.107 34.0426 24.4769V25.8831H29.6073V24.6415C29.6073 23.607 29.0469 22.9659 28.0545 22.9659C27.2205 22.9659 26.7067 23.3828 26.5409 24.2039C26.4853 24.5284 26.4914 24.8623 26.5589 25.1841C27.0334 27.3317 33.6195 28.6655 34.3359 32.6289C34.4298 33.1389 34.5572 34.2304 34.3563 35.7921C33.9454 38.9886 31.4084 40.2221 28.1786 40.2221C23.6706 40.2221 21.8392 37.8583 21.8392 34.5993L21.8425 33.0575H26.5972L26.5997 34.9782C26.5997 36.0579 27.3087 36.6538 28.2742 36.6538C29.189 36.6538 29.7232 36.246 29.9079 35.4123C29.9936 35.0289 30.0312 34.4637 29.8752 34.0314C28.9955 31.5881 22.8456 30.4469 22.0884 26.4962C21.9193 25.6082 21.9054 24.8522 22.0459 23.8964C22.118 23.4226 22.2505 22.9625 22.4396 22.5301C7.62315 30.201 -1.04421 38.6414 0.100979 45.9289C2.33337 60.106 40.806 64.5252 86.0378 55.8071C105.921 51.9758 123.797 46.24 137.401 39.8124C137.204 39.8233 137.013 39.8468 136.809 39.8468C133.713 39.8468 130.949 38.5627 130.662 35.0596C130.611 34.4221 130.602 34.1553 130.601 33.7918L130.602 25.7384C130.602 25.3912 130.639 24.7817 130.674 24.467C131.041 21.0814 133.459 19.6852 136.81 19.6852C139.404 19.6852 142.584 20.509 142.933 24.4697C142.98 24.9671 142.975 25.4979 142.974 25.6724V26.4329H138.495V25.298C138.495 25.2736 138.488 24.8495 138.439 24.5845C138.365 24.1803 138.054 23.2435 136.778 23.2435C135.518 23.2435 135.191 24.1821 135.11 24.5855C135.063 24.807 135.041 25.1253 135.041 25.478V34.2304C135.037 34.5342 135.051 34.772 135.079 34.9466C135.101 35.084 135.327 36.2903 136.794 36.2903C138.25 36.2903 138.476 35.084 138.496 34.9466C138.535 34.7096 138.539 34.4275 138.538 34.2304V31.5185H136.775V28.5977H143.008V33.7936C143.007 34.1472 143.002 34.4085 142.948 35.0596C142.873 35.9783 142.611 36.756 142.201 37.4206C156.629 29.8365 165.029 21.5326 163.899 14.3509ZM46.612 39.4742L44.3428 22.4053H44.2612L41.934 39.4742H37.1515L40.3681 20.1979H48.1713L51.3684 39.4742H46.612ZM69.6155 39.4742L69.5101 22.7353H69.4333L66.6194 39.4742H62.1309L59.3308 22.7353H59.2508L59.1487 39.4742H54.701L55.0866 20.1979H62.2404L64.3233 34.517H64.4254L66.514 20.1979H73.6645L74.0484 39.4742H69.6155ZM90.5598 35.7387C90.0811 39.4724 86.7771 40.1253 84.4417 40.1253C80.5643 40.1253 78.1661 38.2906 78.1661 34.5568L78.1685 33.034H82.8661L82.8693 34.9312C82.8693 35.9612 83.5253 36.5914 84.5381 36.5914C85.4415 36.5914 85.9708 36.1899 86.1546 35.3652C86.2396 34.9809 86.2747 34.4203 86.1244 33.9971C85.2586 31.5999 79.1569 30.4252 78.4152 26.536C78.2453 25.6543 78.233 24.9056 78.3727 23.9597C78.8889 20.434 81.9455 19.7015 84.4058 19.7015C86.6063 19.7015 88.2081 20.2332 89.1687 21.2966C89.8851 22.0906 90.2478 23.1802 90.2478 24.5357V25.9265H85.8549V24.6994C85.8549 23.6486 85.2659 23.041 84.3192 23.041C83.4795 23.041 82.9715 23.4542 82.8048 24.2671C82.7507 24.5884 82.758 24.9186 82.8261 25.2365C83.2965 27.3742 89.8246 28.6809 90.5394 32.6072C90.6317 33.1082 90.7583 34.1834 90.5598 35.7387ZM106.829 33.9871C106.836 34.3488 106.804 35.0714 106.786 35.2567C106.518 38.4325 104.466 40.0466 100.703 40.0466C96.9253 40.0466 94.8718 38.4325 94.6055 35.2567C94.5754 34.8356 94.5609 34.4132 94.5622 33.9908V20.1934H99.0564V34.4257C99.0515 34.744 99.0662 34.9791 99.0948 35.1428C99.1504 35.4593 99.4346 36.4865 100.703 36.4865C101.968 36.4865 102.252 35.4584 102.311 35.1464C102.337 34.9782 102.352 34.7313 102.352 34.4248V20.1934H106.829V33.9871ZM126.192 39.278H119.939L115.741 24.0094H115.671L115.904 39.278H111.545V20.1979H118.061L121.941 34.8652H122.031L121.802 20.1979H126.192V39.278Z" fill="#2D4F9E"/>
</svg>
