<svg width="160" height="46" viewBox="0 0 160 46" fill="none" xmlns="http://www.w3.org/2000/svg">
<g id="tesla-9 1" clip-path="url(#clip0_1_97)">
<g id="TESLA">
<path id="Vector" d="M136.692 18.2535V45.9731H140.71V27.4933H155.407V45.9731H159.426V18.2535H136.692ZM140.251 9.26673H155.752C157.933 8.38072 159.483 4.07721 159.943 0.0268555H136.06C136.52 4.07721 138.127 8.25414 140.251 9.26673ZM124.464 45.9731C126.473 44.0745 127.564 40.7836 128.023 36.9864H109.939V0.153429H105.863V45.9731H124.464ZM75.723 9.14016H90.0753C92.2569 7.74785 94.0366 4.07721 94.4959 0.153429H71.7617V27.2402H90.3624V36.7332H75.7804C73.484 38.1255 71.5321 41.543 70.5561 45.9731H94.381V18.2535H75.7804L75.723 9.14016ZM40.3588 9.26673H55.8593C58.0409 8.38072 59.6484 4.07721 60.0502 0.0268555H36.1105C36.5698 4.07721 38.1772 8.25414 40.3588 9.26673ZM40.3588 27.3668H55.8593C58.0409 26.4807 59.6484 22.1772 60.0502 18.1269H36.1105C36.5698 22.1772 38.1772 26.3542 40.3588 27.3668ZM40.3588 45.9731H55.8593C58.0409 45.0871 59.6484 40.7836 60.0502 36.7332H36.1105C36.5698 40.7836 38.1772 45.0871 40.3588 45.9731Z" fill="#5E5E5E"/>
<g id="Group">
<path id="Vector_2" d="M0 0.153429C0.459275 4.20379 2.06674 8.25414 4.19089 9.26673H10.7356L11.08 9.51988V45.8465H15.1561V9.51988L15.5005 9.26673H22.0452C24.2268 8.00099 25.7768 4.20379 26.2361 0.153429V0.0268555L0 0.153429Z" fill="#5E5E5E"/>
</g>
</g>
</g>
<defs>
<clipPath id="clip0_1_97">
<rect width="160" height="46" fill="white"/>
</clipPath>
</defs>
</svg>
